<mxfile host="app.diagrams.net" modified="2023-10-16T18:27:17.960Z" agent="Mozilla/5.0 (X11; Ubuntu; Linux x86_64; rv:109.0) Gecko/20100101 Firefox/118.0" etag="DwsyJSXXXq-yro5Blk2S" version="22.0.4" type="device">
  <diagram name="Page-1" id="edf60f1a-56cd-e834-aa8a-f176f3a09ee4">
    <mxGraphModel dx="3747" dy="1243" grid="1" gridSize="10" guides="1" tooltips="1" connect="1" arrows="1" fold="1" page="1" pageScale="1" pageWidth="1100" pageHeight="850" background="none" math="0" shadow="0">
      <root>
        <mxCell id="0" />
        <mxCell id="1" parent="0" />
        <mxCell id="GkTiWhYIFZG0V8LEKSP7-30" style="edgeStyle=orthogonalEdgeStyle;rounded=0;orthogonalLoop=1;jettySize=auto;html=1;exitX=0.25;exitY=1;exitDx=0;exitDy=0;entryX=0.5;entryY=0;entryDx=0;entryDy=0;" parent="1" source="GkTiWhYIFZG0V8LEKSP7-5" target="GkTiWhYIFZG0V8LEKSP7-29" edge="1">
          <mxGeometry relative="1" as="geometry">
            <Array as="points">
              <mxPoint x="-280" y="430" />
            </Array>
          </mxGeometry>
        </mxCell>
        <mxCell id="GkTiWhYIFZG0V8LEKSP7-31" style="edgeStyle=orthogonalEdgeStyle;rounded=0;orthogonalLoop=1;jettySize=auto;html=1;exitX=0.75;exitY=1;exitDx=0;exitDy=0;entryX=0.5;entryY=0;entryDx=0;entryDy=0;" parent="1" source="GkTiWhYIFZG0V8LEKSP7-5" target="GkTiWhYIFZG0V8LEKSP7-28" edge="1">
          <mxGeometry relative="1" as="geometry">
            <Array as="points">
              <mxPoint x="-190" y="430" />
            </Array>
          </mxGeometry>
        </mxCell>
        <mxCell id="GkTiWhYIFZG0V8LEKSP7-32" style="edgeStyle=orthogonalEdgeStyle;rounded=0;orthogonalLoop=1;jettySize=auto;html=1;exitX=0.25;exitY=0;exitDx=0;exitDy=0;" parent="1" edge="1">
          <mxGeometry relative="1" as="geometry">
            <mxPoint x="-280.34896551724137" y="310" as="targetPoint" />
            <mxPoint x="-280.28" y="370" as="sourcePoint" />
            <Array as="points">
              <mxPoint x="-280.28" y="340" />
              <mxPoint x="-280.28" y="340" />
            </Array>
          </mxGeometry>
        </mxCell>
        <mxCell id="GkTiWhYIFZG0V8LEKSP7-35" style="edgeStyle=orthogonalEdgeStyle;rounded=0;orthogonalLoop=1;jettySize=auto;html=1;exitX=0;exitY=0.25;exitDx=0;exitDy=0;entryX=1;entryY=0.5;entryDx=0;entryDy=0;" parent="1" source="GkTiWhYIFZG0V8LEKSP7-5" target="GkTiWhYIFZG0V8LEKSP7-22" edge="1">
          <mxGeometry relative="1" as="geometry">
            <Array as="points">
              <mxPoint x="-300" y="375" />
            </Array>
          </mxGeometry>
        </mxCell>
        <mxCell id="GkTiWhYIFZG0V8LEKSP7-38" style="edgeStyle=orthogonalEdgeStyle;rounded=0;orthogonalLoop=1;jettySize=auto;html=1;exitX=0;exitY=0.75;exitDx=0;exitDy=0;entryX=1;entryY=0.5;entryDx=0;entryDy=0;" parent="1" source="GkTiWhYIFZG0V8LEKSP7-5" target="GkTiWhYIFZG0V8LEKSP7-25" edge="1">
          <mxGeometry relative="1" as="geometry">
            <Array as="points">
              <mxPoint x="-300" y="425" />
            </Array>
          </mxGeometry>
        </mxCell>
        <mxCell id="GkTiWhYIFZG0V8LEKSP7-5" value="Child" style="rounded=0;whiteSpace=wrap;html=1;fillColor=#dae8fc;strokeColor=#6c8ebf;" parent="1" vertex="1">
          <mxGeometry x="-300" y="370" width="120" height="60" as="geometry" />
        </mxCell>
        <mxCell id="GkTiWhYIFZG0V8LEKSP7-11" value="DOB" style="ellipse;whiteSpace=wrap;html=1;rounded=0;" parent="1" vertex="1">
          <mxGeometry x="-230" y="270" width="80" height="40" as="geometry" />
        </mxCell>
        <mxCell id="GkTiWhYIFZG0V8LEKSP7-19" value="ID (PK)" style="ellipse;whiteSpace=wrap;html=1;rounded=0;" parent="1" vertex="1">
          <mxGeometry x="-320" y="270" width="80" height="40" as="geometry" />
        </mxCell>
        <mxCell id="GkTiWhYIFZG0V8LEKSP7-22" value="FNAME" style="ellipse;whiteSpace=wrap;html=1;" parent="1" vertex="1">
          <mxGeometry x="-430" y="360" width="80" height="30" as="geometry" />
        </mxCell>
        <mxCell id="GkTiWhYIFZG0V8LEKSP7-25" value="LNAME" style="ellipse;whiteSpace=wrap;html=1;" parent="1" vertex="1">
          <mxGeometry x="-430" y="410" width="80" height="30" as="geometry" />
        </mxCell>
        <mxCell id="GkTiWhYIFZG0V8LEKSP7-28" value="GUARDIAN ID" style="ellipse;whiteSpace=wrap;html=1;rounded=0;" parent="1" vertex="1">
          <mxGeometry x="-230" y="480" width="80" height="40" as="geometry" />
        </mxCell>
        <mxCell id="GkTiWhYIFZG0V8LEKSP7-29" value="PASSWORD" style="ellipse;whiteSpace=wrap;html=1;rounded=0;" parent="1" vertex="1">
          <mxGeometry x="-320" y="480" width="80" height="40" as="geometry" />
        </mxCell>
        <mxCell id="GkTiWhYIFZG0V8LEKSP7-33" style="edgeStyle=orthogonalEdgeStyle;rounded=0;orthogonalLoop=1;jettySize=auto;html=1;exitX=0.25;exitY=0;exitDx=0;exitDy=0;" parent="1" edge="1">
          <mxGeometry relative="1" as="geometry">
            <mxPoint x="-190.3489655172414" y="310" as="targetPoint" />
            <mxPoint x="-190.28" y="370" as="sourcePoint" />
            <Array as="points">
              <mxPoint x="-190.28" y="340" />
              <mxPoint x="-190.28" y="340" />
            </Array>
          </mxGeometry>
        </mxCell>
        <mxCell id="GkTiWhYIFZG0V8LEKSP7-40" value="" style="endArrow=none;html=1;rounded=0;exitX=1;exitY=0.5;exitDx=0;exitDy=0;" parent="1" edge="1">
          <mxGeometry width="50" height="50" relative="1" as="geometry">
            <mxPoint x="-180.0000000000001" y="390.00000000000006" as="sourcePoint" />
            <mxPoint x="-30" y="390" as="targetPoint" />
          </mxGeometry>
        </mxCell>
        <mxCell id="GkTiWhYIFZG0V8LEKSP7-41" value="&lt;div&gt;HAS&lt;/div&gt;&lt;div&gt;A&lt;br&gt;&lt;/div&gt;" style="rhombus;whiteSpace=wrap;html=1;fillColor=#f8cecc;strokeColor=#b85450;" parent="1" vertex="1">
          <mxGeometry x="-30" y="350" width="80" height="80" as="geometry" />
        </mxCell>
        <mxCell id="GkTiWhYIFZG0V8LEKSP7-42" value="" style="endArrow=none;html=1;rounded=0;exitX=1;exitY=0.5;exitDx=0;exitDy=0;entryX=0;entryY=0.5;entryDx=0;entryDy=0;" parent="1" source="GkTiWhYIFZG0V8LEKSP7-41" edge="1">
          <mxGeometry width="50" height="50" relative="1" as="geometry">
            <mxPoint x="-60" y="520" as="sourcePoint" />
            <mxPoint x="200" y="390.00000000000006" as="targetPoint" />
          </mxGeometry>
        </mxCell>
        <mxCell id="GkTiWhYIFZG0V8LEKSP7-44" style="edgeStyle=orthogonalEdgeStyle;rounded=0;orthogonalLoop=1;jettySize=auto;html=1;exitX=0.25;exitY=0;exitDx=0;exitDy=0;" parent="1" source="GkTiWhYIFZG0V8LEKSP7-43" edge="1">
          <mxGeometry relative="1" as="geometry">
            <mxPoint x="230.11764705882365" y="320" as="targetPoint" />
          </mxGeometry>
        </mxCell>
        <mxCell id="GkTiWhYIFZG0V8LEKSP7-47" style="edgeStyle=orthogonalEdgeStyle;rounded=0;orthogonalLoop=1;jettySize=auto;html=1;exitX=0.75;exitY=1;exitDx=0;exitDy=0;" parent="1" source="GkTiWhYIFZG0V8LEKSP7-43" edge="1">
          <mxGeometry relative="1" as="geometry">
            <mxPoint x="290.11764705882365" y="480" as="targetPoint" />
          </mxGeometry>
        </mxCell>
        <mxCell id="GkTiWhYIFZG0V8LEKSP7-43" value="GUARDIAN" style="rounded=0;whiteSpace=wrap;html=1;fillColor=#dae8fc;strokeColor=#6c8ebf;" parent="1" vertex="1">
          <mxGeometry x="200" y="370" width="120" height="60" as="geometry" />
        </mxCell>
        <mxCell id="GkTiWhYIFZG0V8LEKSP7-45" value="GUARDIAN ID" style="ellipse;whiteSpace=wrap;html=1;rounded=0;" parent="1" vertex="1">
          <mxGeometry x="180" y="280" width="100" height="40" as="geometry" />
        </mxCell>
        <mxCell id="GkTiWhYIFZG0V8LEKSP7-48" value="AADHAR NO" style="ellipse;whiteSpace=wrap;html=1;rounded=0;" parent="1" vertex="1">
          <mxGeometry x="240" y="480" width="100" height="40" as="geometry" />
        </mxCell>
        <mxCell id="GkTiWhYIFZG0V8LEKSP7-53" style="edgeStyle=orthogonalEdgeStyle;rounded=0;orthogonalLoop=1;jettySize=auto;html=1;exitX=1;exitY=0.5;exitDx=0;exitDy=0;" parent="1" source="GkTiWhYIFZG0V8LEKSP7-52" edge="1">
          <mxGeometry relative="1" as="geometry">
            <mxPoint x="580" y="590.4117647058823" as="targetPoint" />
          </mxGeometry>
        </mxCell>
        <mxCell id="GkTiWhYIFZG0V8LEKSP7-64" style="edgeStyle=orthogonalEdgeStyle;rounded=0;orthogonalLoop=1;jettySize=auto;html=1;exitX=0;exitY=0.5;exitDx=0;exitDy=0;entryX=1;entryY=0.5;entryDx=0;entryDy=0;" parent="1" source="GkTiWhYIFZG0V8LEKSP7-52" target="GkTiWhYIFZG0V8LEKSP7-62" edge="1">
          <mxGeometry relative="1" as="geometry" />
        </mxCell>
        <mxCell id="GkTiWhYIFZG0V8LEKSP7-52" value="AADHAR CARD" style="rounded=0;whiteSpace=wrap;html=1;fillColor=#dae8fc;strokeColor=#6c8ebf;" parent="1" vertex="1">
          <mxGeometry x="430" y="560" width="120" height="60" as="geometry" />
        </mxCell>
        <mxCell id="GkTiWhYIFZG0V8LEKSP7-54" value="LNAME" style="ellipse;whiteSpace=wrap;html=1;" parent="1" vertex="1">
          <mxGeometry x="580" y="565" width="80" height="50" as="geometry" />
        </mxCell>
        <mxCell id="GkTiWhYIFZG0V8LEKSP7-55" value="FNAME" style="ellipse;whiteSpace=wrap;html=1;" parent="1" vertex="1">
          <mxGeometry x="530" y="480" width="80" height="50" as="geometry" />
        </mxCell>
        <mxCell id="GkTiWhYIFZG0V8LEKSP7-56" value="AADHAR NO" style="ellipse;whiteSpace=wrap;html=1;" parent="1" vertex="1">
          <mxGeometry x="380" y="480" width="80" height="50" as="geometry" />
        </mxCell>
        <mxCell id="GkTiWhYIFZG0V8LEKSP7-59" style="edgeStyle=orthogonalEdgeStyle;rounded=0;orthogonalLoop=1;jettySize=auto;html=1;exitX=0.75;exitY=0;exitDx=0;exitDy=0;entryX=0.245;entryY=0.929;entryDx=0;entryDy=0;entryPerimeter=0;" parent="1" source="GkTiWhYIFZG0V8LEKSP7-52" target="GkTiWhYIFZG0V8LEKSP7-55" edge="1">
          <mxGeometry relative="1" as="geometry" />
        </mxCell>
        <mxCell id="GkTiWhYIFZG0V8LEKSP7-61" style="edgeStyle=orthogonalEdgeStyle;rounded=0;orthogonalLoop=1;jettySize=auto;html=1;exitX=0.25;exitY=0;exitDx=0;exitDy=0;entryX=0.697;entryY=0.957;entryDx=0;entryDy=0;entryPerimeter=0;" parent="1" source="GkTiWhYIFZG0V8LEKSP7-52" target="GkTiWhYIFZG0V8LEKSP7-56" edge="1">
          <mxGeometry relative="1" as="geometry" />
        </mxCell>
        <mxCell id="GkTiWhYIFZG0V8LEKSP7-62" value="PHONE&lt;br&gt;NO" style="ellipse;whiteSpace=wrap;html=1;" parent="1" vertex="1">
          <mxGeometry x="320" y="565" width="80" height="50" as="geometry" />
        </mxCell>
        <mxCell id="GkTiWhYIFZG0V8LEKSP7-65" value="DOB" style="ellipse;whiteSpace=wrap;html=1;" parent="1" vertex="1">
          <mxGeometry x="380" y="650" width="80" height="50" as="geometry" />
        </mxCell>
        <mxCell id="GkTiWhYIFZG0V8LEKSP7-66" value="GENDER" style="ellipse;whiteSpace=wrap;html=1;" parent="1" vertex="1">
          <mxGeometry x="530" y="650" width="80" height="50" as="geometry" />
        </mxCell>
        <mxCell id="GkTiWhYIFZG0V8LEKSP7-68" style="edgeStyle=orthogonalEdgeStyle;rounded=0;orthogonalLoop=1;jettySize=auto;html=1;exitX=0.25;exitY=1;exitDx=0;exitDy=0;entryX=0.685;entryY=0.036;entryDx=0;entryDy=0;entryPerimeter=0;" parent="1" source="GkTiWhYIFZG0V8LEKSP7-52" target="GkTiWhYIFZG0V8LEKSP7-65" edge="1">
          <mxGeometry relative="1" as="geometry" />
        </mxCell>
        <mxCell id="GkTiWhYIFZG0V8LEKSP7-69" style="edgeStyle=orthogonalEdgeStyle;rounded=0;orthogonalLoop=1;jettySize=auto;html=1;exitX=0.75;exitY=1;exitDx=0;exitDy=0;entryX=0.235;entryY=0.084;entryDx=0;entryDy=0;entryPerimeter=0;" parent="1" source="GkTiWhYIFZG0V8LEKSP7-52" target="GkTiWhYIFZG0V8LEKSP7-66" edge="1">
          <mxGeometry relative="1" as="geometry" />
        </mxCell>
        <mxCell id="GkTiWhYIFZG0V8LEKSP7-72" value="&lt;div&gt;HAS&lt;/div&gt;&lt;div&gt;A&lt;br&gt;&lt;/div&gt;" style="rhombus;whiteSpace=wrap;html=1;fillColor=#f8cecc;strokeColor=#b85450;" parent="1" vertex="1">
          <mxGeometry x="-110" y="460" width="80" height="80" as="geometry" />
        </mxCell>
        <mxCell id="GkTiWhYIFZG0V8LEKSP7-73" value="" style="endArrow=none;html=1;rounded=0;entryX=0.5;entryY=0;entryDx=0;entryDy=0;" parent="1" target="GkTiWhYIFZG0V8LEKSP7-72" edge="1">
          <mxGeometry width="50" height="50" relative="1" as="geometry">
            <mxPoint x="-180" y="405" as="sourcePoint" />
            <mxPoint x="-80" y="565" as="targetPoint" />
            <Array as="points">
              <mxPoint x="-70" y="405" />
            </Array>
          </mxGeometry>
        </mxCell>
        <mxCell id="GkTiWhYIFZG0V8LEKSP7-74" value="" style="endArrow=none;html=1;rounded=0;entryX=0.5;entryY=1;entryDx=0;entryDy=0;" parent="1" target="GkTiWhYIFZG0V8LEKSP7-72" edge="1">
          <mxGeometry width="50" height="50" relative="1" as="geometry">
            <mxPoint x="-70" y="690" as="sourcePoint" />
            <mxPoint x="-30" y="540" as="targetPoint" />
          </mxGeometry>
        </mxCell>
        <mxCell id="GkTiWhYIFZG0V8LEKSP7-81" style="edgeStyle=orthogonalEdgeStyle;rounded=0;orthogonalLoop=1;jettySize=auto;html=1;exitX=0.25;exitY=0;exitDx=0;exitDy=0;entryX=1;entryY=0.5;entryDx=0;entryDy=0;" parent="1" source="GkTiWhYIFZG0V8LEKSP7-75" target="GkTiWhYIFZG0V8LEKSP7-76" edge="1">
          <mxGeometry relative="1" as="geometry" />
        </mxCell>
        <mxCell id="GkTiWhYIFZG0V8LEKSP7-82" style="edgeStyle=orthogonalEdgeStyle;rounded=0;orthogonalLoop=1;jettySize=auto;html=1;exitX=0.75;exitY=0;exitDx=0;exitDy=0;entryX=0;entryY=0.5;entryDx=0;entryDy=0;" parent="1" source="GkTiWhYIFZG0V8LEKSP7-75" target="GkTiWhYIFZG0V8LEKSP7-77" edge="1">
          <mxGeometry relative="1" as="geometry" />
        </mxCell>
        <mxCell id="GkTiWhYIFZG0V8LEKSP7-83" style="edgeStyle=orthogonalEdgeStyle;rounded=0;orthogonalLoop=1;jettySize=auto;html=1;exitX=0.75;exitY=1;exitDx=0;exitDy=0;entryX=0;entryY=0.5;entryDx=0;entryDy=0;" parent="1" source="GkTiWhYIFZG0V8LEKSP7-75" target="GkTiWhYIFZG0V8LEKSP7-79" edge="1">
          <mxGeometry relative="1" as="geometry" />
        </mxCell>
        <mxCell id="GkTiWhYIFZG0V8LEKSP7-84" style="edgeStyle=orthogonalEdgeStyle;rounded=0;orthogonalLoop=1;jettySize=auto;html=1;exitX=0.25;exitY=1;exitDx=0;exitDy=0;entryX=1;entryY=0.5;entryDx=0;entryDy=0;" parent="1" source="GkTiWhYIFZG0V8LEKSP7-75" target="GkTiWhYIFZG0V8LEKSP7-78" edge="1">
          <mxGeometry relative="1" as="geometry" />
        </mxCell>
        <mxCell id="GkTiWhYIFZG0V8LEKSP7-116" style="edgeStyle=orthogonalEdgeStyle;rounded=0;orthogonalLoop=1;jettySize=auto;html=1;exitX=0;exitY=0.5;exitDx=0;exitDy=0;entryX=1;entryY=0.5;entryDx=0;entryDy=0;" parent="1" source="GkTiWhYIFZG0V8LEKSP7-75" target="GkTiWhYIFZG0V8LEKSP7-80" edge="1">
          <mxGeometry relative="1" as="geometry" />
        </mxCell>
        <mxCell id="GkTiWhYIFZG0V8LEKSP7-75" value="SLOT" style="rounded=0;whiteSpace=wrap;html=1;fillColor=#dae8fc;strokeColor=#6c8ebf;" parent="1" vertex="1">
          <mxGeometry x="-130" y="690" width="120" height="60" as="geometry" />
        </mxCell>
        <mxCell id="GkTiWhYIFZG0V8LEKSP7-76" value="ID" style="ellipse;whiteSpace=wrap;html=1;rounded=0;" parent="1" vertex="1">
          <mxGeometry x="-240" y="640" width="80" height="40" as="geometry" />
        </mxCell>
        <mxCell id="GkTiWhYIFZG0V8LEKSP7-77" value="CenterID" style="ellipse;whiteSpace=wrap;html=1;rounded=0;" parent="1" vertex="1">
          <mxGeometry x="20" y="640" width="80" height="40" as="geometry" />
        </mxCell>
        <mxCell id="GkTiWhYIFZG0V8LEKSP7-78" value="SlotID" style="ellipse;whiteSpace=wrap;html=1;rounded=0;" parent="1" vertex="1">
          <mxGeometry x="-230" y="770" width="80" height="40" as="geometry" />
        </mxCell>
        <mxCell id="GkTiWhYIFZG0V8LEKSP7-79" value="VaccineID" style="ellipse;whiteSpace=wrap;html=1;rounded=0;" parent="1" vertex="1">
          <mxGeometry x="20" y="770" width="80" height="40" as="geometry" />
        </mxCell>
        <mxCell id="GkTiWhYIFZG0V8LEKSP7-80" value="DATE" style="ellipse;whiteSpace=wrap;html=1;rounded=0;" parent="1" vertex="1">
          <mxGeometry x="-340" y="700" width="80" height="40" as="geometry" />
        </mxCell>
        <mxCell id="GkTiWhYIFZG0V8LEKSP7-86" style="edgeStyle=orthogonalEdgeStyle;rounded=0;orthogonalLoop=1;jettySize=auto;html=1;exitX=0.25;exitY=0;exitDx=0;exitDy=0;entryX=1;entryY=0.5;entryDx=0;entryDy=0;" parent="1" source="GkTiWhYIFZG0V8LEKSP7-91" target="GkTiWhYIFZG0V8LEKSP7-92" edge="1">
          <mxGeometry relative="1" as="geometry" />
        </mxCell>
        <mxCell id="GkTiWhYIFZG0V8LEKSP7-87" style="edgeStyle=orthogonalEdgeStyle;rounded=0;orthogonalLoop=1;jettySize=auto;html=1;exitX=0.75;exitY=0;exitDx=0;exitDy=0;entryX=0;entryY=0.5;entryDx=0;entryDy=0;" parent="1" source="GkTiWhYIFZG0V8LEKSP7-91" target="GkTiWhYIFZG0V8LEKSP7-93" edge="1">
          <mxGeometry relative="1" as="geometry" />
        </mxCell>
        <mxCell id="GkTiWhYIFZG0V8LEKSP7-88" style="edgeStyle=orthogonalEdgeStyle;rounded=0;orthogonalLoop=1;jettySize=auto;html=1;exitX=0.75;exitY=1;exitDx=0;exitDy=0;entryX=0;entryY=0.5;entryDx=0;entryDy=0;" parent="1" source="GkTiWhYIFZG0V8LEKSP7-91" target="GkTiWhYIFZG0V8LEKSP7-95" edge="1">
          <mxGeometry relative="1" as="geometry" />
        </mxCell>
        <mxCell id="GkTiWhYIFZG0V8LEKSP7-89" style="edgeStyle=orthogonalEdgeStyle;rounded=0;orthogonalLoop=1;jettySize=auto;html=1;exitX=0.25;exitY=1;exitDx=0;exitDy=0;entryX=1;entryY=0.5;entryDx=0;entryDy=0;" parent="1" source="GkTiWhYIFZG0V8LEKSP7-91" target="GkTiWhYIFZG0V8LEKSP7-94" edge="1">
          <mxGeometry relative="1" as="geometry" />
        </mxCell>
        <mxCell id="GkTiWhYIFZG0V8LEKSP7-91" value="CENTER" style="rounded=0;whiteSpace=wrap;html=1;fillColor=#dae8fc;strokeColor=#6c8ebf;" parent="1" vertex="1">
          <mxGeometry x="390" y="840" width="120" height="60" as="geometry" />
        </mxCell>
        <mxCell id="GkTiWhYIFZG0V8LEKSP7-92" value="CenterID" style="ellipse;whiteSpace=wrap;html=1;rounded=0;" parent="1" vertex="1">
          <mxGeometry x="280" y="790" width="80" height="40" as="geometry" />
        </mxCell>
        <mxCell id="GkTiWhYIFZG0V8LEKSP7-93" value="Address" style="ellipse;whiteSpace=wrap;html=1;rounded=0;" parent="1" vertex="1">
          <mxGeometry x="540" y="790" width="80" height="40" as="geometry" />
        </mxCell>
        <mxCell id="GkTiWhYIFZG0V8LEKSP7-94" value="&lt;div&gt;Available&lt;/div&gt;&lt;div&gt;Vaccines&lt;/div&gt;" style="ellipse;whiteSpace=wrap;html=1;rounded=0;" parent="1" vertex="1">
          <mxGeometry x="290" y="920" width="80" height="40" as="geometry" />
        </mxCell>
        <mxCell id="GkTiWhYIFZG0V8LEKSP7-95" value="Qty" style="ellipse;whiteSpace=wrap;html=1;rounded=0;" parent="1" vertex="1">
          <mxGeometry x="540" y="920" width="80" height="40" as="geometry" />
        </mxCell>
        <mxCell id="GkTiWhYIFZG0V8LEKSP7-97" value="" style="endArrow=none;html=1;rounded=0;exitX=1;exitY=0.5;exitDx=0;exitDy=0;entryX=0.5;entryY=0;entryDx=0;entryDy=0;dashed=1;" parent="1" source="GkTiWhYIFZG0V8LEKSP7-77" target="GkTiWhYIFZG0V8LEKSP7-91" edge="1">
          <mxGeometry width="50" height="50" relative="1" as="geometry">
            <mxPoint x="170" y="880" as="sourcePoint" />
            <mxPoint x="450" y="720" as="targetPoint" />
            <Array as="points">
              <mxPoint x="230" y="660" />
              <mxPoint x="230" y="720" />
              <mxPoint x="450" y="720" />
              <mxPoint x="450" y="830" />
            </Array>
          </mxGeometry>
        </mxCell>
        <mxCell id="GkTiWhYIFZG0V8LEKSP7-104" style="edgeStyle=orthogonalEdgeStyle;rounded=0;orthogonalLoop=1;jettySize=auto;html=1;exitX=0.25;exitY=0;exitDx=0;exitDy=0;entryX=1;entryY=0.5;entryDx=0;entryDy=0;" parent="1" source="GkTiWhYIFZG0V8LEKSP7-99" target="GkTiWhYIFZG0V8LEKSP7-100" edge="1">
          <mxGeometry relative="1" as="geometry" />
        </mxCell>
        <mxCell id="GkTiWhYIFZG0V8LEKSP7-105" style="edgeStyle=orthogonalEdgeStyle;rounded=0;orthogonalLoop=1;jettySize=auto;html=1;exitX=0.75;exitY=0;exitDx=0;exitDy=0;entryX=0;entryY=0.5;entryDx=0;entryDy=0;" parent="1" source="GkTiWhYIFZG0V8LEKSP7-99" target="GkTiWhYIFZG0V8LEKSP7-101" edge="1">
          <mxGeometry relative="1" as="geometry" />
        </mxCell>
        <mxCell id="GkTiWhYIFZG0V8LEKSP7-106" style="edgeStyle=orthogonalEdgeStyle;rounded=0;orthogonalLoop=1;jettySize=auto;html=1;exitX=0.75;exitY=1;exitDx=0;exitDy=0;entryX=0;entryY=0.5;entryDx=0;entryDy=0;" parent="1" source="GkTiWhYIFZG0V8LEKSP7-99" target="GkTiWhYIFZG0V8LEKSP7-102" edge="1">
          <mxGeometry relative="1" as="geometry" />
        </mxCell>
        <mxCell id="GkTiWhYIFZG0V8LEKSP7-107" style="edgeStyle=orthogonalEdgeStyle;rounded=0;orthogonalLoop=1;jettySize=auto;html=1;exitX=0.25;exitY=1;exitDx=0;exitDy=0;entryX=1;entryY=0.5;entryDx=0;entryDy=0;" parent="1" source="GkTiWhYIFZG0V8LEKSP7-99" target="GkTiWhYIFZG0V8LEKSP7-103" edge="1">
          <mxGeometry relative="1" as="geometry" />
        </mxCell>
        <mxCell id="GkTiWhYIFZG0V8LEKSP7-99" value="VACCINE" style="rounded=0;whiteSpace=wrap;html=1;fillColor=#dae8fc;strokeColor=#6c8ebf;" parent="1" vertex="1">
          <mxGeometry x="-130" y="1180" width="120" height="60" as="geometry" />
        </mxCell>
        <mxCell id="GkTiWhYIFZG0V8LEKSP7-100" value="VaccineID" style="ellipse;whiteSpace=wrap;html=1;rounded=0;" parent="1" vertex="1">
          <mxGeometry x="-220" y="1110" width="80" height="40" as="geometry" />
        </mxCell>
        <mxCell id="GkTiWhYIFZG0V8LEKSP7-101" value="&lt;div&gt;Vaccine&lt;/div&gt;&lt;div&gt;Name&lt;br&gt;&lt;/div&gt;" style="ellipse;whiteSpace=wrap;html=1;rounded=0;" parent="1" vertex="1">
          <mxGeometry x="10" y="1110" width="80" height="40" as="geometry" />
        </mxCell>
        <mxCell id="GkTiWhYIFZG0V8LEKSP7-102" value="MAX AGE" style="ellipse;whiteSpace=wrap;html=1;rounded=0;" parent="1" vertex="1">
          <mxGeometry x="10" y="1280" width="80" height="40" as="geometry" />
        </mxCell>
        <mxCell id="GkTiWhYIFZG0V8LEKSP7-103" value="MIN AGE" style="ellipse;whiteSpace=wrap;html=1;rounded=0;" parent="1" vertex="1">
          <mxGeometry x="-220" y="1280" width="80" height="40" as="geometry" />
        </mxCell>
        <mxCell id="GkTiWhYIFZG0V8LEKSP7-111" value="" style="endArrow=none;html=1;rounded=0;entryX=0;entryY=0;entryDx=0;entryDy=0;exitX=1;exitY=1;exitDx=0;exitDy=0;dashed=1;" parent="1" source="GkTiWhYIFZG0V8LEKSP7-48" target="GkTiWhYIFZG0V8LEKSP7-52" edge="1">
          <mxGeometry width="50" height="50" relative="1" as="geometry">
            <mxPoint x="340" y="500" as="sourcePoint" />
            <mxPoint x="420" y="540" as="targetPoint" />
            <Array as="points">
              <mxPoint x="340" y="540" />
              <mxPoint x="400" y="540" />
            </Array>
          </mxGeometry>
        </mxCell>
        <mxCell id="GkTiWhYIFZG0V8LEKSP7-113" value="&lt;div&gt;HAS&lt;/div&gt;&lt;div&gt;A&lt;br&gt;&lt;/div&gt;" style="rhombus;whiteSpace=wrap;html=1;fillColor=#f8cecc;strokeColor=#b85450;" parent="1" vertex="1">
          <mxGeometry x="130" y="700" width="80" height="80" as="geometry" />
        </mxCell>
        <mxCell id="GkTiWhYIFZG0V8LEKSP7-114" value="" style="endArrow=none;html=1;rounded=0;entryX=0;entryY=0.5;entryDx=0;entryDy=0;" parent="1" target="GkTiWhYIFZG0V8LEKSP7-113" edge="1">
          <mxGeometry width="50" height="50" relative="1" as="geometry">
            <mxPoint x="-10" y="740" as="sourcePoint" />
            <mxPoint x="220" y="660" as="targetPoint" />
          </mxGeometry>
        </mxCell>
        <mxCell id="GkTiWhYIFZG0V8LEKSP7-115" value="" style="endArrow=none;html=1;rounded=0;exitX=1;exitY=0.5;exitDx=0;exitDy=0;" parent="1" source="GkTiWhYIFZG0V8LEKSP7-113" edge="1">
          <mxGeometry width="50" height="50" relative="1" as="geometry">
            <mxPoint x="220" y="800" as="sourcePoint" />
            <mxPoint x="440" y="840" as="targetPoint" />
            <Array as="points">
              <mxPoint x="440" y="740" />
            </Array>
          </mxGeometry>
        </mxCell>
        <mxCell id="GkTiWhYIFZG0V8LEKSP7-117" value="" style="endArrow=none;html=1;rounded=0;entryX=0.5;entryY=1;entryDx=0;entryDy=0;exitX=1;exitY=0.25;exitDx=0;exitDy=0;dashed=1;dashPattern=8 8;" parent="1" source="GkTiWhYIFZG0V8LEKSP7-99" target="GkTiWhYIFZG0V8LEKSP7-79" edge="1">
          <mxGeometry width="50" height="50" relative="1" as="geometry">
            <mxPoint x="130" y="1090" as="sourcePoint" />
            <mxPoint x="120" y="820" as="targetPoint" />
            <Array as="points">
              <mxPoint x="130" y="1195" />
              <mxPoint x="130" y="1030" />
              <mxPoint x="130" y="900" />
              <mxPoint x="60" y="900" />
            </Array>
          </mxGeometry>
        </mxCell>
        <mxCell id="GkTiWhYIFZG0V8LEKSP7-118" value="&lt;div&gt;HAS&lt;/div&gt;&lt;div&gt;A&lt;br&gt;&lt;/div&gt;" style="rhombus;whiteSpace=wrap;html=1;fillColor=#f8cecc;strokeColor=#b85450;" parent="1" vertex="1">
          <mxGeometry x="-110" y="980" width="80" height="80" as="geometry" />
        </mxCell>
        <mxCell id="GkTiWhYIFZG0V8LEKSP7-119" value="" style="endArrow=none;html=1;rounded=0;exitX=0.5;exitY=0;exitDx=0;exitDy=0;entryX=0.5;entryY=1;entryDx=0;entryDy=0;" parent="1" source="GkTiWhYIFZG0V8LEKSP7-118" target="GkTiWhYIFZG0V8LEKSP7-75" edge="1">
          <mxGeometry width="50" height="50" relative="1" as="geometry">
            <mxPoint x="-120" y="870" as="sourcePoint" />
            <mxPoint x="-70" y="820" as="targetPoint" />
          </mxGeometry>
        </mxCell>
        <mxCell id="GkTiWhYIFZG0V8LEKSP7-120" value="" style="endArrow=none;html=1;rounded=0;exitX=0.5;exitY=0;exitDx=0;exitDy=0;entryX=0.5;entryY=1;entryDx=0;entryDy=0;" parent="1" source="GkTiWhYIFZG0V8LEKSP7-99" target="GkTiWhYIFZG0V8LEKSP7-118" edge="1">
          <mxGeometry width="50" height="50" relative="1" as="geometry">
            <mxPoint x="-70.82999999999998" y="1170" as="sourcePoint" />
            <mxPoint x="-71" y="1060" as="targetPoint" />
          </mxGeometry>
        </mxCell>
        <mxCell id="GkTiWhYIFZG0V8LEKSP7-127" style="edgeStyle=orthogonalEdgeStyle;rounded=0;orthogonalLoop=1;jettySize=auto;html=1;exitX=0.5;exitY=0;exitDx=0;exitDy=0;entryX=0.5;entryY=1;entryDx=0;entryDy=0;" parent="1" source="GkTiWhYIFZG0V8LEKSP7-122" target="GkTiWhYIFZG0V8LEKSP7-124" edge="1">
          <mxGeometry relative="1" as="geometry" />
        </mxCell>
        <mxCell id="GkTiWhYIFZG0V8LEKSP7-128" style="edgeStyle=orthogonalEdgeStyle;rounded=0;orthogonalLoop=1;jettySize=auto;html=1;exitX=0;exitY=0.5;exitDx=0;exitDy=0;entryX=1;entryY=0.5;entryDx=0;entryDy=0;" parent="1" source="GkTiWhYIFZG0V8LEKSP7-122" target="GkTiWhYIFZG0V8LEKSP7-125" edge="1">
          <mxGeometry relative="1" as="geometry" />
        </mxCell>
        <mxCell id="GkTiWhYIFZG0V8LEKSP7-129" style="edgeStyle=orthogonalEdgeStyle;rounded=0;orthogonalLoop=1;jettySize=auto;html=1;exitX=0.5;exitY=1;exitDx=0;exitDy=0;entryX=0.5;entryY=0;entryDx=0;entryDy=0;" parent="1" source="GkTiWhYIFZG0V8LEKSP7-122" target="GkTiWhYIFZG0V8LEKSP7-126" edge="1">
          <mxGeometry relative="1" as="geometry" />
        </mxCell>
        <mxCell id="GkTiWhYIFZG0V8LEKSP7-122" value="FEEDBACK" style="rounded=0;whiteSpace=wrap;html=1;fillColor=#dae8fc;strokeColor=#6c8ebf;" parent="1" vertex="1">
          <mxGeometry x="-470" y="920" width="120" height="60" as="geometry" />
        </mxCell>
        <mxCell id="GkTiWhYIFZG0V8LEKSP7-124" value="SlotID" style="ellipse;whiteSpace=wrap;html=1;rounded=0;" parent="1" vertex="1">
          <mxGeometry x="-450" y="840" width="80" height="40" as="geometry" />
        </mxCell>
        <mxCell id="GkTiWhYIFZG0V8LEKSP7-125" value="VaccineID" style="ellipse;whiteSpace=wrap;html=1;rounded=0;" parent="1" vertex="1">
          <mxGeometry x="-600" y="930" width="80" height="40" as="geometry" />
        </mxCell>
        <mxCell id="GkTiWhYIFZG0V8LEKSP7-126" value="Comments" style="ellipse;whiteSpace=wrap;html=1;rounded=0;" parent="1" vertex="1">
          <mxGeometry x="-450" y="1030" width="80" height="40" as="geometry" />
        </mxCell>
        <mxCell id="GkTiWhYIFZG0V8LEKSP7-130" value="" style="endArrow=none;html=1;rounded=0;exitX=1;exitY=0;exitDx=0;exitDy=0;entryX=0;entryY=0.5;entryDx=0;entryDy=0;dashed=1;" parent="1" source="GkTiWhYIFZG0V8LEKSP7-124" target="GkTiWhYIFZG0V8LEKSP7-78" edge="1">
          <mxGeometry width="50" height="50" relative="1" as="geometry">
            <mxPoint x="-140" y="760" as="sourcePoint" />
            <mxPoint x="-90" y="710" as="targetPoint" />
            <Array as="points">
              <mxPoint x="-382" y="790" />
            </Array>
          </mxGeometry>
        </mxCell>
        <mxCell id="GkTiWhYIFZG0V8LEKSP7-132" value="&lt;div&gt;HAS&lt;/div&gt;&lt;div&gt;A&lt;br&gt;&lt;/div&gt;" style="rhombus;whiteSpace=wrap;html=1;fillColor=#f8cecc;strokeColor=#b85450;" parent="1" vertex="1">
          <mxGeometry x="-240" y="910" width="80" height="80" as="geometry" />
        </mxCell>
        <mxCell id="GkTiWhYIFZG0V8LEKSP7-133" value="" style="endArrow=none;html=1;rounded=0;exitX=1;exitY=0.5;exitDx=0;exitDy=0;" parent="1" source="GkTiWhYIFZG0V8LEKSP7-122" edge="1">
          <mxGeometry width="50" height="50" relative="1" as="geometry">
            <mxPoint x="-290" y="1000" as="sourcePoint" />
            <mxPoint x="-240" y="950" as="targetPoint" />
          </mxGeometry>
        </mxCell>
        <mxCell id="GkTiWhYIFZG0V8LEKSP7-134" value="" style="endArrow=none;html=1;rounded=0;entryX=0.412;entryY=0.983;entryDx=0;entryDy=0;entryPerimeter=0;" parent="1" edge="1">
          <mxGeometry width="50" height="50" relative="1" as="geometry">
            <mxPoint x="-160" y="951" as="sourcePoint" />
            <mxPoint x="-90.55999999999995" y="750" as="targetPoint" />
            <Array as="points">
              <mxPoint x="-90" y="951.02" />
            </Array>
          </mxGeometry>
        </mxCell>
      </root>
    </mxGraphModel>
  </diagram>
</mxfile>
